# xmcd
#
# Track frame offsets:
#	150
#	14929
#	25214
#	40215
#	55231
#	69624
#	83115
#	94785
#	117357
#	147262
#
# Disc length: 2111 seconds
#
# Revision: 1
# Processed by: cddbd v1.5.2PL0 Copyright (c) Steve Scherf et al.
# Submitted via: audiograbber 1.83.01
#
DISCID=8b083d0a
DTITLE=Charlie Musselwhite - Vanguard Visionaries: Charlie Musselwhite
DYEAR=1900
DGENRE=Blues
TTITLE0=I Don't Play, I'll Be Your Man Some Day
TTITLE1=Juke
TTITLE2=Christo Redemptor
TTITLE3=Baby Will You Please Help Me
TTITLE4=Cha Cha the Blues
TTITLE5=Strange Land
TTITLE6=Everything's Gonna Be Alright
TTITLE7=Blue Feeling Today
TTITLE8=A Nice Day for Something
TTITLE9=Cry for Me Baby
EXTD=
EXTT0=
EXTT1=
EXTT2=
EXTT3=
EXTT4=
EXTT5=
EXTT6=
EXTT7=
EXTT8=
EXTT9=
PLAYORDER=
